<?xml version="1.0" encoding="UTF-8"?>
<svg width="282px" height="60px" viewBox="0 0 282 60" version="1.1" xmlns="http://www.w3.org/2000/svg" xmlns:xlink="http://www.w3.org/1999/xlink">
    <title>Group</title>
    <defs>
        <polygon id="path-1" points="0 0 36 0 36 53 0 53"></polygon>
        <polygon id="path-3" points="1.42108547e-14 0 42 0 42 54 1.42108547e-14 54"></polygon>
        <polygon id="path-5" points="0 0 43 0 43 54 0 54"></polygon>
    </defs>
    <g id="Page-1" stroke="none" stroke-width="1" fill="none" fill-rule="evenodd">
        <g id="Group">
            <rect id="Rectangle" x="0" y="0" width="282" height="60" rx="1"></rect>
            <g id="logo" transform="translate(3.000000, 3.000000)">
                <g id="Fill-1-Clipped">
                    <mask id="mask-2" fill="white">
                        <use xlink:href="#path-1"></use>
                    </mask>
                    <g id="path-1"></g>
                    <path d="M18.8791972,48.0646069 C23.132121,48.0646069 26.1377801,47.2673308 27.895269,45.6723402 C29.6532106,44.0782266 30.531955,41.7372698 30.531955,38.6485925 C30.531955,36.0173184 29.9022108,33.992553 28.6436279,32.5742963 C27.3845922,31.1573552 25.3889685,30.1706274 22.654946,29.6132358 L12.4341658,27.7906399 C8.70097336,27.13326 5.93390176,25.7158803 4.13385649,23.538501 C2.33245303,21.3628759 1.43197767,18.3755027 1.43197767,14.5785742 C1.43197767,11.7955632 2.03953822,9.30111539 3.25465932,7.10005461 C4.4693277,4.89767819 6.31464574,3.1641071 8.78834981,1.89846426 C11.2625066,0.633259967 14.2998566,0 17.9026635,0 C23.3711612,0 27.5801705,1.46912804 30.531955,4.40343721 C33.4828341,7.34081619 35.1103901,11.3399143 35.4141704,16.40117 L30.2064438,16.40117 C29.9022108,12.8072882 28.741417,9.99752592 26.7236097,7.97276053 C24.7053497,5.9488722 21.7431525,4.93539312 17.8374708,4.93539312 C14.1481929,4.93539312 11.4023995,5.78354048 9.60235418,7.47939663 C7.800498,9.17612987 6.90047536,11.4916511 6.90047536,14.4268373 C6.90047536,18.9328942 9.07039915,21.5909196 13.4106995,22.3995979 L24.2173093,24.2985006 C28.1660002,25.0571848 31.1177847,26.5131563 33.0708519,28.6642229 C35.0239191,30.8166052 36,33.8649362 36,37.8136015 C36,47.9387442 30.2929148,53 18.8791972,53 C12.2815966,53 7.48630499,51.2909875 4.49196408,47.8742781 C1.49717045,44.4575686 0,40.0155394 0,34.548629 L5.27291934,34.548629 C5.40330491,43.559427 9.9378254,48.0646069 18.8791972,48.0646069" id="Fill-1" fill="#171614" fill-rule="nonzero" mask="url(#mask-2)"></path>
                </g>
                <polygon id="Fill-4" fill="#171614" fill-rule="nonzero" points="75 47.8619519 75 53 44 53 44 2 74.8122875 2 74.8122875 7.138934 49.1980247 7.138934 49.1980247 24.2411044 72.9334204 24.2411044 72.9334204 29.3029677 49.1980247 29.3029677 49.1980247 47.8619519"></polygon>
                <path d="M108,35 L98.9997766,7 L90,35 L108,35 Z M109.494338,39.9629755 L88.44222,39.9629755 L84.295416,53 L79,53 L95.0765741,2 L102.923426,2 L119,53 L113.640698,53 L109.494338,39.9629755 Z" id="Fill-6" fill="#171614" fill-rule="nonzero"></path>
                <polygon id="Fill-8" fill="#171614" fill-rule="nonzero" points="153 47.8619519 153 53 125 53 125 2 130.392087 2 130.392087 47.8619519"></polygon>
                <polygon id="Fill-10" fill="#EA4F1B" fill-rule="nonzero" points="178 29.7780414 167.979933 29.7780414 167.979933 42 164.020067 42 164.020067 29.7780414 154 29.7780414 154 25.3663177 164.020067 25.3663177 164.020067 13 167.979933 13 167.979933 25.3663177 178 25.3663177"></polygon>
                <g id="Fill-12-Clipped" transform="translate(185.000000, 0.000000)">
                    <mask id="mask-4" fill="white">
                        <use xlink:href="#path-3"></use>
                    </mask>
                    <g id="path-3"></g>
                    <path d="M5.3871233,46.63286 C1.79510954,41.7224729 1.42108547e-14,35.1773694 1.42108547e-14,27.0002228 C1.42108547e-14,21.703991 0.78426681,17.0359821 2.35459508,12.998424 C3.92447469,8.96131156 6.32259029,5.78499822 9.5480446,3.47126626 C12.7743961,1.15753431 16.7742466,0 21.5484932,0 C33.9352426,0 40.6876542,6.83961089 41.8061766,20.5206148 L36.387198,20.5206148 C35.9129589,15.4801278 34.4512076,11.6867301 31.9997009,9.14175859 C29.5486428,6.59545045 26.0207882,5.32296471 21.4192776,5.32296471 C16.0855455,5.32296471 12.1179989,7.13590046 9.51618931,10.7608809 C6.91303371,14.3871979 5.61280191,19.8006089 5.61280191,27.0002228 C5.61280191,34.2515202 6.89194645,39.6782976 9.45158154,43.2774362 C12.0103193,46.877466 15.9567785,48.6770353 21.290062,48.6770353 C26.0643086,48.6770353 29.7195842,47.2637563 32.258132,44.434525 C34.7953339,41.6066304 36.214462,37.5436761 36.515965,32.2456621 L42,32.2456621 C41.6128019,39.0866096 39.7418679,44.4224952 36.387198,48.2533189 C33.0320796,52.0845881 28.0420249,54 21.4192776,54 C14.3227398,54 8.97779106,51.5450292 5.3871233,46.63286" id="Fill-12" fill="#171614" fill-rule="nonzero" mask="url(#mask-4)"></path>
                </g>
                <g id="Fill-15-Clipped" transform="translate(233.000000, 0.000000)">
                    <mask id="mask-6" fill="white">
                        <use xlink:href="#path-5"></use>
                    </mask>
                    <g id="path-5"></g>
                    <path d="M9.86057029,42.6824488 C12.4341322,46.2288087 16.469914,48 21.9674607,48 C27.4645524,48 31.5103464,46.2288087 34.1062078,42.6824488 C36.7016142,39.1378566 38,33.7438543 38,26.5 C38,19.2574715 36.7016142,13.8630272 34.1062078,10.3175512 C31.5103464,6.77251705 27.4645524,5 21.9674607,5 C16.469914,5 12.4341322,6.77251705 9.86057029,10.3175512 C7.28609827,13.8630272 6,19.2574715 6,26.5 C6,33.7438543 7.28609827,39.1378566 9.86057029,42.6824488 M5.35058791,46.63286 C1.78382999,41.722473 0,35.1773694 0,27.0002228 C0,21.7543379 0.767204757,17.1005866 2.30251633,13.0376324 C3.83692584,8.97556911 6.2039397,5.78544377 9.40400893,3.47126626 C12.6031761,1.1575343 16.6245738,0 21.4677512,0 C26.3095755,0 30.341347,1.1704552 33.5630657,3.50958342 C36.7838824,5.85049382 39.162172,9.03883696 40.6970326,13.0759494 C42.2318932,17.1135075 43,21.7543379 43,27.0002228 C43,35.1270225 41.2048942,41.6569774 37.6164867,46.5945428 C34.0271773,51.5321084 28.6445661,54 21.4677512,54 C14.2895832,54 8.91779685,51.5454748 5.35058791,46.63286" id="Fill-15" fill="#171614" fill-rule="nonzero" mask="url(#mask-6)"></path>
                </g>
            </g>
        </g>
    </g>
</svg>